<?xml version="1.0" encoding="utf-8"?>
<!-- Generator: Adobe Illustrator 15.0.2, SVG Export Plug-In . SVG Version: 6.00 Build 0)  -->
<!DOCTYPE svg PUBLIC "-//W3C//DTD SVG 1.1//EN" "http://www.w3.org/Graphics/SVG/1.1/DTD/svg11.dtd">
<svg version="1.1" id="Layer_1" xmlns="http://www.w3.org/2000/svg" xmlns:xlink="http://www.w3.org/1999/xlink" x="0px" y="0px"
	 width="50px" height="35px" viewBox="0 0 50 35" enable-background="new 0 0 50 35" xml:space="preserve">
<path d="M49.053,5.31c-0.573-2.156-2.261-3.854-4.402-4.43c-3.882-1.047-19.448-1.047-19.448-1.047s-15.566,0-19.449,1.047
	C3.612,1.457,1.926,3.154,1.353,5.31C0.312,9.217,0.312,17.369,0.312,17.369s0,8.152,1.041,12.059
	c0.573,2.156,2.259,3.782,4.401,4.359c3.882,1.047,19.449,1.047,19.449,1.047s15.566,0,19.448-1.047
	c2.142-0.577,3.829-2.203,4.402-4.359c1.04-3.906,1.04-12.059,1.04-12.059S50.093,9.217,49.053,5.31z M20.111,24.771V9.968
	l13.011,7.402L20.111,24.771z"/>
</svg>
